<mxfile host="app.diagrams.net" modified="2021-01-17T03:42:52.754Z" agent="5.0 (Macintosh; Intel Mac OS X 10_15_7) AppleWebKit/537.36 (KHTML, like Gecko) Chrome/87.0.4280.141 Safari/537.36" etag="V1UFLDBSt6zPOY8FK1zo" version="14.2.2" type="github">
  <diagram id="mDmGH0GWxW6q6ih1JbrO" name="Page-1">
    <mxGraphModel dx="1186" dy="1942" grid="1" gridSize="10" guides="1" tooltips="1" connect="1" arrows="1" fold="1" page="1" pageScale="1" pageWidth="827" pageHeight="1169" math="0" shadow="0">
      <root>
        <mxCell id="0" />
        <mxCell id="1" parent="0" />
        <mxCell id="9SWO9_qELJo0vdKT4b1X-32" value="pull" style="edgeStyle=orthogonalEdgeStyle;rounded=0;orthogonalLoop=1;jettySize=auto;html=1;entryX=0.5;entryY=0;entryDx=0;entryDy=0;" edge="1" parent="1" source="9SWO9_qELJo0vdKT4b1X-1" target="9SWO9_qELJo0vdKT4b1X-5">
          <mxGeometry relative="1" as="geometry" />
        </mxCell>
        <mxCell id="9SWO9_qELJo0vdKT4b1X-41" style="edgeStyle=orthogonalEdgeStyle;rounded=0;orthogonalLoop=1;jettySize=auto;html=1;entryX=0.5;entryY=1;entryDx=0;entryDy=0;" edge="1" parent="1" source="9SWO9_qELJo0vdKT4b1X-1" target="9SWO9_qELJo0vdKT4b1X-38">
          <mxGeometry relative="1" as="geometry">
            <Array as="points">
              <mxPoint x="220" y="220" />
              <mxPoint x="420" y="220" />
            </Array>
          </mxGeometry>
        </mxCell>
        <mxCell id="9SWO9_qELJo0vdKT4b1X-45" value="export to" style="edgeLabel;html=1;align=center;verticalAlign=middle;resizable=0;points=[];" vertex="1" connectable="0" parent="9SWO9_qELJo0vdKT4b1X-41">
          <mxGeometry x="-0.1034" y="-1" relative="1" as="geometry">
            <mxPoint as="offset" />
          </mxGeometry>
        </mxCell>
        <mxCell id="9SWO9_qELJo0vdKT4b1X-1" value="prometheus" style="rounded=0;whiteSpace=wrap;html=1;" vertex="1" parent="1">
          <mxGeometry x="160" y="280" width="120" height="60" as="geometry" />
        </mxCell>
        <mxCell id="9SWO9_qELJo0vdKT4b1X-33" value="pull" style="edgeStyle=orthogonalEdgeStyle;rounded=0;orthogonalLoop=1;jettySize=auto;html=1;entryX=0.5;entryY=0;entryDx=0;entryDy=0;" edge="1" parent="1" source="9SWO9_qELJo0vdKT4b1X-2" target="9SWO9_qELJo0vdKT4b1X-20">
          <mxGeometry relative="1" as="geometry" />
        </mxCell>
        <mxCell id="9SWO9_qELJo0vdKT4b1X-42" style="edgeStyle=orthogonalEdgeStyle;rounded=0;orthogonalLoop=1;jettySize=auto;html=1;entryX=0.5;entryY=1;entryDx=0;entryDy=0;" edge="1" parent="1" source="9SWO9_qELJo0vdKT4b1X-2" target="9SWO9_qELJo0vdKT4b1X-38">
          <mxGeometry relative="1" as="geometry" />
        </mxCell>
        <mxCell id="9SWO9_qELJo0vdKT4b1X-44" value="export to" style="edgeLabel;html=1;align=center;verticalAlign=middle;resizable=0;points=[];" vertex="1" connectable="0" parent="9SWO9_qELJo0vdKT4b1X-42">
          <mxGeometry x="-0.2222" y="1" relative="1" as="geometry">
            <mxPoint as="offset" />
          </mxGeometry>
        </mxCell>
        <mxCell id="9SWO9_qELJo0vdKT4b1X-2" value="prometheus" style="rounded=0;whiteSpace=wrap;html=1;" vertex="1" parent="1">
          <mxGeometry x="360" y="280" width="120" height="60" as="geometry" />
        </mxCell>
        <mxCell id="9SWO9_qELJo0vdKT4b1X-34" value="pull" style="edgeStyle=orthogonalEdgeStyle;rounded=0;orthogonalLoop=1;jettySize=auto;html=1;entryX=0.5;entryY=0;entryDx=0;entryDy=0;" edge="1" parent="1" source="9SWO9_qELJo0vdKT4b1X-3" target="9SWO9_qELJo0vdKT4b1X-28">
          <mxGeometry relative="1" as="geometry" />
        </mxCell>
        <mxCell id="9SWO9_qELJo0vdKT4b1X-43" style="edgeStyle=orthogonalEdgeStyle;rounded=0;orthogonalLoop=1;jettySize=auto;html=1;" edge="1" parent="1" source="9SWO9_qELJo0vdKT4b1X-3" target="9SWO9_qELJo0vdKT4b1X-38">
          <mxGeometry relative="1" as="geometry">
            <Array as="points">
              <mxPoint x="630" y="220" />
              <mxPoint x="420" y="220" />
            </Array>
          </mxGeometry>
        </mxCell>
        <mxCell id="9SWO9_qELJo0vdKT4b1X-46" value="export to" style="edgeLabel;html=1;align=center;verticalAlign=middle;resizable=0;points=[];" vertex="1" connectable="0" parent="9SWO9_qELJo0vdKT4b1X-43">
          <mxGeometry x="-0.06" y="-4" relative="1" as="geometry">
            <mxPoint as="offset" />
          </mxGeometry>
        </mxCell>
        <mxCell id="9SWO9_qELJo0vdKT4b1X-3" value="prometheus" style="rounded=0;whiteSpace=wrap;html=1;" vertex="1" parent="1">
          <mxGeometry x="570" y="280" width="120" height="60" as="geometry" />
        </mxCell>
        <mxCell id="9SWO9_qELJo0vdKT4b1X-5" value="" style="rounded=0;whiteSpace=wrap;html=1;" vertex="1" parent="1">
          <mxGeometry x="160" y="420" width="120" height="60" as="geometry" />
        </mxCell>
        <mxCell id="9SWO9_qELJo0vdKT4b1X-11" value="app" style="ellipse;whiteSpace=wrap;html=1;aspect=fixed;" vertex="1" parent="1">
          <mxGeometry x="170" y="430" width="40" height="40" as="geometry" />
        </mxCell>
        <mxCell id="9SWO9_qELJo0vdKT4b1X-13" value="app" style="ellipse;whiteSpace=wrap;html=1;aspect=fixed;" vertex="1" parent="1">
          <mxGeometry x="220" y="430" width="40" height="40" as="geometry" />
        </mxCell>
        <mxCell id="9SWO9_qELJo0vdKT4b1X-14" value="group1" style="text;html=1;strokeColor=none;fillColor=none;align=center;verticalAlign=middle;whiteSpace=wrap;rounded=0;" vertex="1" parent="1">
          <mxGeometry x="200" y="480" width="40" height="20" as="geometry" />
        </mxCell>
        <mxCell id="9SWO9_qELJo0vdKT4b1X-20" value="" style="rounded=0;whiteSpace=wrap;html=1;" vertex="1" parent="1">
          <mxGeometry x="360" y="420" width="120" height="60" as="geometry" />
        </mxCell>
        <mxCell id="9SWO9_qELJo0vdKT4b1X-21" value="app" style="ellipse;whiteSpace=wrap;html=1;aspect=fixed;" vertex="1" parent="1">
          <mxGeometry x="370" y="430" width="40" height="40" as="geometry" />
        </mxCell>
        <mxCell id="9SWO9_qELJo0vdKT4b1X-22" value="app" style="ellipse;whiteSpace=wrap;html=1;aspect=fixed;" vertex="1" parent="1">
          <mxGeometry x="420" y="430" width="40" height="40" as="geometry" />
        </mxCell>
        <mxCell id="9SWO9_qELJo0vdKT4b1X-23" value="group2" style="text;html=1;strokeColor=none;fillColor=none;align=center;verticalAlign=middle;whiteSpace=wrap;rounded=0;" vertex="1" parent="1">
          <mxGeometry x="400" y="480" width="40" height="20" as="geometry" />
        </mxCell>
        <mxCell id="9SWO9_qELJo0vdKT4b1X-28" value="" style="rounded=0;whiteSpace=wrap;html=1;" vertex="1" parent="1">
          <mxGeometry x="570" y="420" width="120" height="60" as="geometry" />
        </mxCell>
        <mxCell id="9SWO9_qELJo0vdKT4b1X-29" value="app" style="ellipse;whiteSpace=wrap;html=1;aspect=fixed;" vertex="1" parent="1">
          <mxGeometry x="580" y="430" width="40" height="40" as="geometry" />
        </mxCell>
        <mxCell id="9SWO9_qELJo0vdKT4b1X-30" value="app" style="ellipse;whiteSpace=wrap;html=1;aspect=fixed;" vertex="1" parent="1">
          <mxGeometry x="630" y="430" width="40" height="40" as="geometry" />
        </mxCell>
        <mxCell id="9SWO9_qELJo0vdKT4b1X-31" value="group3" style="text;html=1;strokeColor=none;fillColor=none;align=center;verticalAlign=middle;whiteSpace=wrap;rounded=0;" vertex="1" parent="1">
          <mxGeometry x="610" y="480" width="40" height="20" as="geometry" />
        </mxCell>
        <mxCell id="9SWO9_qELJo0vdKT4b1X-51" style="edgeStyle=orthogonalEdgeStyle;rounded=0;orthogonalLoop=1;jettySize=auto;html=1;entryX=0;entryY=0.5;entryDx=0;entryDy=0;" edge="1" parent="1" source="9SWO9_qELJo0vdKT4b1X-38" target="9SWO9_qELJo0vdKT4b1X-50">
          <mxGeometry relative="1" as="geometry" />
        </mxCell>
        <mxCell id="9SWO9_qELJo0vdKT4b1X-38" value="" style="image;html=1;image=img/lib/clip_art/computers/Database_128x128.png" vertex="1" parent="1">
          <mxGeometry x="380" y="110" width="80" height="80" as="geometry" />
        </mxCell>
        <mxCell id="9SWO9_qELJo0vdKT4b1X-47" value="influxDB" style="text;html=1;strokeColor=none;fillColor=none;align=center;verticalAlign=middle;whiteSpace=wrap;rounded=0;" vertex="1" parent="1">
          <mxGeometry x="400" y="80" width="40" height="20" as="geometry" />
        </mxCell>
        <mxCell id="9SWO9_qELJo0vdKT4b1X-49" value="Read" style="edgeStyle=orthogonalEdgeStyle;rounded=0;orthogonalLoop=1;jettySize=auto;html=1;" edge="1" parent="1" source="9SWO9_qELJo0vdKT4b1X-48" target="9SWO9_qELJo0vdKT4b1X-47">
          <mxGeometry relative="1" as="geometry" />
        </mxCell>
        <mxCell id="9SWO9_qELJo0vdKT4b1X-48" value="Grafana" style="rounded=0;whiteSpace=wrap;html=1;" vertex="1" parent="1">
          <mxGeometry x="360" y="-80" width="120" height="60" as="geometry" />
        </mxCell>
        <mxCell id="9SWO9_qELJo0vdKT4b1X-50" value="Ceph RDB" style="rounded=0;whiteSpace=wrap;html=1;" vertex="1" parent="1">
          <mxGeometry x="510" y="120" width="120" height="60" as="geometry" />
        </mxCell>
      </root>
    </mxGraphModel>
  </diagram>
</mxfile>
